<?xml version="1.0" encoding="UTF-8" standalone="no"?>
<svg
   height="110.00348"
   width="215.84972"
   version="1.1"
   id="svg278"
   sodipodi:docname="kyrasi flag with outline3.svg"
   inkscape:version="1.2.2 (b0a8486541, 2022-12-01)"
   xmlns:inkscape="http://www.inkscape.org/namespaces/inkscape"
   xmlns:sodipodi="http://sodipodi.sourceforge.net/DTD/sodipodi-0.dtd"
   xmlns="http://www.w3.org/2000/svg"
   xmlns:svg="http://www.w3.org/2000/svg">
  <sodipodi:namedview
     id="namedview199"
     pagecolor="#ffffff"
     bordercolor="#000000"
     borderopacity="0.25"
     inkscape:showpageshadow="2"
     inkscape:pageopacity="0.0"
     inkscape:pagecheckerboard="0"
     inkscape:deskcolor="#d1d1d1"
     showgrid="false"
     inkscape:zoom="2.5041624"
     inkscape:cx="81.664032"
     inkscape:cy="30.948472"
     inkscape:window-width="1241"
     inkscape:window-height="660"
     inkscape:window-x="0"
     inkscape:window-y="0"
     inkscape:window-maximized="1"
     inkscape:current-layer="svg278" />
  <defs
     id="defs282" />
  <clipPath
     id="a">
    <path
       d="m 0,200 v 100 h 600 v -94.4 c 0,-0.2 -0.1,-0.4 -0.1,-0.6 -0.1,-0.9 0,-1.8 0.1,-2.7 V 200 Z"
       id="path248" />
  </clipPath>
  <clipPath
     id="b">
    <path
       d="m -8.2,150.1 c -0.1,0.1 -0.1,0.1 -0.2,0.2 v 0.1 c -0.1,0.2 -0.1,0.4 -0.2,0.6 -0.1,0.3 -0.2,0.7 -0.3,1 -0.1,1.7 -0.2,3.4 -0.4,5.1 v 0.7 c 0.2,-1.4 0.4,-2.9 0.6,-4.3 0.1,-1 0.3,-1.9 1.3,-0.8 0,-0.8 0.1,-1.6 0.2,-2.4 z m 3.9,0 v 0.2 0.9 0.9 0.7 0.5 0.5 0.5 0.5 0.5 0.4 0.5 0.5 c 0,0.2 0,0.5 0.1,0.7 v 0.8 0.7 0.5 0.6 0.5 0.5 0.6 0.5 c 0,0.2 0,0.4 0.1,0.5 0,0.3 0.1,0.6 0,0.9 v 0.7 0.7 0.9 c 0,0.3 0,0.5 -0.1,0.8 0,0.3 -0.1,0.6 -0.1,0.8 v 0.5 0.5 0.5 0.6 0.5 0.4 0.3 c 0,0.2 0.1,0.3 0.1,0.5 0,0.2 0.1,0.4 0.1,0.5 v 0.5 0.5 0.6 c 0,0.2 -0.1,0.3 -0.1,0.5 v 0.8 c 0,0.3 0,0.5 -0.1,0.8 -0.2,1.1 -1.1,1.2 -1.4,0.6 0,0 -0.1,0 -0.2,0.1 -0.3,0 -0.6,-0.1 -0.8,-0.2 v 0.2 c 0,0.1 -0.1,0.2 -0.1,0.3 -0.3,0.6 -0.7,1 -1.3,1.3 -0.3,0.2 -0.7,0.3 -1.1,0.3 -0.1,0 -0.2,0 -0.3,0 -0.2,0 -0.4,-0.1 -0.5,-0.2 -0.5,-0.3 -1,-0.6 -1.5,-1 -0.1,-0.1 -0.2,-0.2 -0.3,-0.3 -0.1,-0.2 -0.2,-0.3 -0.3,-0.5 -0.1,-0.1 -0.2,-0.3 -0.2,-0.4 v 0.2 c -0.7,3.5 -1.3,7.1 -1.8,10.6 h 610.7 c -0.2,-1.9 -0.2,-3.8 0.1,-5.7 0.1,-1.2 0.3,-2.5 0.4,-3.5 0,-0.2 -0.1,-0.5 -0.1,-0.8 -0.3,-1.5 -0.5,-2.9 -0.6,-4.4 0,-0.4 0,-0.7 0,-1.1 -0.1,-0.6 -0.3,-1.2 -0.4,-1.8 -0.1,-1.3 0.1,-2.6 0.2,-3.8 0.1,-0.8 0.1,-1.5 0.1,-2.3 0,-0.9 0,-1.7 0,-2.6 0,-0.9 0,-1.8 0,-2.7 0,-1.1 0,-2.1 0,-3.2 0,-1 0,-2 0,-3 v -0.9 z m 644.3,0 c 0.1,0.2 0.1,0.4 0.2,0.6 0.1,0 0.1,0 0.2,0.1 v -0.7 z m 0,22.6 c 0.2,3.3 -0.4,6.7 -0.9,10 -0.2,1.1 -0.4,2.1 -0.5,3.2 h 1.9 v -13 c -0.2,-0.1 -0.3,-0.1 -0.5,-0.2 z m -646.2,1.1 c 0,0 0.1,0.1 0.1,0.1 0,0 0,0 0,-0.1 z m -3.4,0.9 c -0.1,0.1 -0.1,0.2 -0.2,0.3 v 0.1 0.2 c -0.1,0 -0.2,0 -0.4,0 -0.1,0 -0.2,0 -0.3,0 -0.1,0 0.1,0.1 0.1,0.1 0.3,0.3 0.7,0.5 1.1,0.7 0,-0.5 -0.1,-0.9 -0.2,-1.3 z m 618.8,0.2 c 0,0.7 -0.1,1.3 -0.3,1.9 v 1.6 3.9 3.5 c 0.1,0.1 0.2,0.2 0.2,0.2 h 3.4 c 0,-0.1 0,-0.2 0,-0.3 V 177 c -0.1,0 -0.1,0 -0.2,-0.1 -1.4,-0.7 -2.4,-1.4 -3.1,-2.1 z m 15.1,7 v 3.9 0.3 h 0.4 c -0.1,-1.4 -0.1,-2.7 -0.1,-4.1 -0.1,0 -0.2,0 -0.3,-0.1 z"
       id="path251" />
  </clipPath>
  <path
     d="M 40.101113,2.0183093 H 213.45199 V 58.355635 H 34.641241 L 33.907868,19.047053 Z"
     fill="#0a255c"
     stroke-width="0.403494"
     id="path254"
     style="fill:#091a34;fill-opacity:1" />
  <path
     d="M 34.641092,54.915112 H 213.45183 V 107.80352 H 40.100962 l -5.30681,-16.738601 z"
     fill="#0a255c"
     stroke-width="0.390946"
     id="path254-6"
     style="fill:#00993d;fill-opacity:1" />
  <path
     d="M 1.8818704,2.0160677 H 40.440398 l -6.251113,17.5949703 6.408693,18.538129 -7.72277,16.442797 7.040616,17.975089 -7.042134,17.73599 8.592262,17.500477 H 1.8769439 Z"
     fill="#e50000"
     fill-rule="evenodd"
     id="path258"
     style="fill:#f50000;fill-opacity:1;stroke-width:0.336711" />
  <g
     fill="#009543"
     id="g270"
     transform="matrix(0.34040261,0,0,0.34121196,14.493367,40.447819)"
     style="fill:none;stroke-width:11.0858;stroke-dasharray:none">
    <path
       style="fill:none;fill-opacity:1;stroke:#ffffff;stroke-width:11.0858;stroke-dasharray:none;stroke-opacity:1"
       d="m 76.012234,-112.62533 c 0.02589,18.532192 -20.011995,33.212829 -19.991323,51.665127 0.0207,18.469152 19.975702,33.203523 19.991323,51.6726802 0.0156,18.4563039 -20.001984,33.2163728 -19.991323,51.6726808 0.01059,18.465114 19.993768,33.207561 19.991108,51.67268 -0.003,18.467292 -19.959796,33.205432 -19.991108,51.672682 -0.0312,18.44123 20.071995,32.47488 19.991108,51.67268"
       id="path5051" />
  </g>
  <path
     id="path9524"
     style="fill:#ffffff;stroke-width:5.28715"
     d="m 17.570697,10.327939 1.931251,5.583746 5.625001,0.08125 -4.362501,3.687499 1.343751,5.759997 -4.537502,-3.386873 -4.537501,3.386873 1.343751,-5.759997 -4.362501,-3.687499 5.625001,-0.08125 z" />
  <path
     id="path9524-6"
     style="fill:#ffffff;stroke-width:5.28715"
     d="m 17.570697,39.948424 1.931251,5.583748 5.625001,0.0025 -4.362501,3.766248 1.343751,5.759997 -4.537502,-3.386872 -4.537501,3.386872 1.343751,-5.759997 -4.362501,-3.766248 5.625001,-0.0025 z" />
  <path
     id="path9524-3"
     style="fill:#ffffff;stroke-width:5.28715"
     d="m 17.570697,25.138182 1.931251,5.583747 5.625001,0.0025 -4.362501,3.766249 1.343751,5.759997 -4.537502,-3.386874 -4.537501,3.386874 1.343751,-5.759997 -4.362501,-3.766249 5.625001,-0.0025 z" />
  <path
     id="path9524-7"
     style="fill:#ffffff;stroke-width:5.28715"
     d="m 17.570697,54.758667 1.931251,5.583749 5.625001,0.08125 -4.362501,3.687497 1.343751,5.759998 -4.537502,-3.386874 -4.537501,3.386874 1.343751,-5.759998 -4.362501,-3.687497 5.625001,-0.08125 z" />
  <path
     id="path9524-6-5"
     style="fill:#ffffff;stroke-width:5.28715"
     d="m 17.570697,84.379155 1.931251,5.583746 5.625001,0.0025 -4.362501,3.766248 1.343751,5.759998 -4.537502,-3.386874 -4.537501,3.386874 1.343751,-5.759998 -4.362501,-3.766248 5.625001,-0.0025 z" />
  <path
     id="path9524-3-3"
     style="fill:#ffffff;stroke-width:5.28715"
     d="m 17.570697,69.568911 1.931251,5.583747 5.625001,0.0025 -4.362501,3.766249 1.343751,5.759997 -4.537502,-3.386873 -4.537501,3.386873 1.343751,-5.759997 -4.362501,-3.766249 5.625001,-0.0025 z" />
  <rect
     style="fill:none;stroke:#ffffff;stroke-width:3.59452;stroke-dasharray:none;stroke-opacity:1"
     id="rect307"
     width="212.06299"
     height="106.42241"
     x="1.9877058"
     y="1.8041861" />
</svg>
