<?xml version="1.0" encoding="UTF-8" standalone="no"?>
<svg
   height="866"
   width="1715"
   version="1.1"
   id="svg278"
   sodipodi:docname="kyrasi flag with outline.svg"
   inkscape:version="1.2.2 (b0a8486541, 2022-12-01)"
   xmlns:inkscape="http://www.inkscape.org/namespaces/inkscape"
   xmlns:sodipodi="http://sodipodi.sourceforge.net/DTD/sodipodi-0.dtd"
   xmlns="http://www.w3.org/2000/svg"
   xmlns:svg="http://www.w3.org/2000/svg">
  <sodipodi:namedview
     id="namedview199"
     pagecolor="#ffffff"
     bordercolor="#000000"
     borderopacity="0.25"
     inkscape:showpageshadow="2"
     inkscape:pageopacity="0.0"
     inkscape:pagecheckerboard="0"
     inkscape:deskcolor="#d1d1d1"
     showgrid="false"
     inkscape:zoom="0.35861988"
     inkscape:cx="856.05963"
     inkscape:cy="439.18368"
     inkscape:window-width="1241"
     inkscape:window-height="660"
     inkscape:window-x="0"
     inkscape:window-y="0"
     inkscape:window-maximized="1"
     inkscape:current-layer="svg278" />
  <defs
     id="defs282" />
  <clipPath
     id="a">
    <path
       d="m 0,200 v 100 h 600 v -94.4 c 0,-0.2 -0.1,-0.4 -0.1,-0.6 -0.1,-0.9 0,-1.8 0.1,-2.7 V 200 Z"
       id="path248" />
  </clipPath>
  <clipPath
     id="b">
    <path
       d="m -8.2,150.1 c -0.1,0.1 -0.1,0.1 -0.2,0.2 v 0.1 c -0.1,0.2 -0.1,0.4 -0.2,0.6 -0.1,0.3 -0.2,0.7 -0.3,1 -0.1,1.7 -0.2,3.4 -0.4,5.1 v 0.7 c 0.2,-1.4 0.4,-2.9 0.6,-4.3 0.1,-1 0.3,-1.9 1.3,-0.8 0,-0.8 0.1,-1.6 0.2,-2.4 z m 3.9,0 v 0.2 0.9 0.9 0.7 0.5 0.5 0.5 0.5 0.5 0.4 0.5 0.5 c 0,0.2 0,0.5 0.1,0.7 v 0.8 0.7 0.5 0.6 0.5 0.5 0.6 0.5 c 0,0.2 0,0.4 0.1,0.5 0,0.3 0.1,0.6 0,0.9 v 0.7 0.7 0.9 c 0,0.3 0,0.5 -0.1,0.8 0,0.3 -0.1,0.6 -0.1,0.8 v 0.5 0.5 0.5 0.6 0.5 0.4 0.3 c 0,0.2 0.1,0.3 0.1,0.5 0,0.2 0.1,0.4 0.1,0.5 v 0.5 0.5 0.6 c 0,0.2 -0.1,0.3 -0.1,0.5 v 0.8 c 0,0.3 0,0.5 -0.1,0.8 -0.2,1.1 -1.1,1.2 -1.4,0.6 0,0 -0.1,0 -0.2,0.1 -0.3,0 -0.6,-0.1 -0.8,-0.2 v 0.2 c 0,0.1 -0.1,0.2 -0.1,0.3 -0.3,0.6 -0.7,1 -1.3,1.3 -0.3,0.2 -0.7,0.3 -1.1,0.3 -0.1,0 -0.2,0 -0.3,0 -0.2,0 -0.4,-0.1 -0.5,-0.2 -0.5,-0.3 -1,-0.6 -1.5,-1 -0.1,-0.1 -0.2,-0.2 -0.3,-0.3 -0.1,-0.2 -0.2,-0.3 -0.3,-0.5 -0.1,-0.1 -0.2,-0.3 -0.2,-0.4 v 0.2 c -0.7,3.5 -1.3,7.1 -1.8,10.6 h 610.7 c -0.2,-1.9 -0.2,-3.8 0.1,-5.7 0.1,-1.2 0.3,-2.5 0.4,-3.5 0,-0.2 -0.1,-0.5 -0.1,-0.8 -0.3,-1.5 -0.5,-2.9 -0.6,-4.4 0,-0.4 0,-0.7 0,-1.1 -0.1,-0.6 -0.3,-1.2 -0.4,-1.8 -0.1,-1.3 0.1,-2.6 0.2,-3.8 0.1,-0.8 0.1,-1.5 0.1,-2.3 0,-0.9 0,-1.7 0,-2.6 0,-0.9 0,-1.8 0,-2.7 0,-1.1 0,-2.1 0,-3.2 0,-1 0,-2 0,-3 v -0.9 z m 644.3,0 c 0.1,0.2 0.1,0.4 0.2,0.6 0.1,0 0.1,0 0.2,0.1 v -0.7 z m 0,22.6 c 0.2,3.3 -0.4,6.7 -0.9,10 -0.2,1.1 -0.4,2.1 -0.5,3.2 h 1.9 v -13 c -0.2,-0.1 -0.3,-0.1 -0.5,-0.2 z m -646.2,1.1 c 0,0 0.1,0.1 0.1,0.1 0,0 0,0 0,-0.1 z m -3.4,0.9 c -0.1,0.1 -0.1,0.2 -0.2,0.3 v 0.1 0.2 c -0.1,0 -0.2,0 -0.4,0 -0.1,0 -0.2,0 -0.3,0 -0.1,0 0.1,0.1 0.1,0.1 0.3,0.3 0.7,0.5 1.1,0.7 0,-0.5 -0.1,-0.9 -0.2,-1.3 z m 618.8,0.2 c 0,0.7 -0.1,1.3 -0.3,1.9 v 1.6 3.9 3.5 c 0.1,0.1 0.2,0.2 0.2,0.2 h 3.4 c 0,-0.1 0,-0.2 0,-0.3 V 177 c -0.1,0 -0.1,0 -0.2,-0.1 -1.4,-0.7 -2.4,-1.4 -3.1,-2.1 z m 15.1,7 v 3.9 0.3 h 0.4 c -0.1,-1.4 -0.1,-2.7 -0.1,-4.1 -0.1,0 -0.2,0 -0.3,-0.1 z"
       id="path251" />
  </clipPath>
  <path
     d="M 316.02129,10.08256 H 1702.828 V 460.78137 H 272.34233 l -5.86698,-314.46879 z"
     fill="#0a255c"
     stroke-width="3.22795"
     id="path254"
     style="fill:#091a34;fill-opacity:1" />
  <path
     d="M 272.34114,433.25718 H 1702.8268 V 856.36462 H 316.02009 L 273.56562,722.45577 Z"
     fill="#0a255c"
     stroke-width="3.12757"
     id="path254-6"
     style="fill:#00993d;fill-opacity:1" />
  <path
     d="M 10.267425,10.064627 H 318.73557 l -50.00889,140.759833 51.26954,148.3051 -61.78215,131.54243 56.32491,143.80078 -56.33705,141.88798 68.73808,140.00387 H 10.228013 Z"
     fill="#e50000"
     fill-rule="evenodd"
     id="path258"
     style="fill:#f50000;fill-opacity:1;stroke-width:2.69369" />
  <g
     fill="#009543"
     id="g270"
     transform="matrix(2.7232203,0,0,2.7296969,111.15937,317.51878)"
     style="fill:none;stroke-width:11.0858;stroke-dasharray:none">
    <path
       style="fill:none;fill-opacity:1;stroke:#ffffff;stroke-width:11.0858;stroke-dasharray:none;stroke-opacity:1"
       d="m 76.012234,-112.62533 c 0.02589,18.532192 -20.011995,33.212829 -19.991323,51.665127 0.0207,18.469152 19.975702,33.203523 19.991323,51.6726802 0.0156,18.4563039 -20.001984,33.2163728 -19.991323,51.6726808 0.01059,18.465114 19.993768,33.207561 19.991108,51.67268 -0.003,18.467292 -19.959796,33.205432 -19.991108,51.672682 -0.0312,18.44123 20.071995,32.47488 19.991108,51.67268"
       id="path5051" />
  </g>
  <path
     id="path9524"
     style="fill:#ffffff;stroke-width:42.2973"
     d="m 135.77801,76.559627 15.45,44.669993 45,0.65 -34.9,29.5 10.75,46.08 -36.3,-27.095 -36.300001,27.095 10.750001,-46.08 -34.899997,-29.5 44.999997,-0.65 z" />
  <path
     id="path9524-6"
     style="fill:#ffffff;stroke-width:42.2973"
     d="m 135.77801,313.52362 15.45,44.67 45,0.02 -34.9,30.13 10.75,46.08 -36.3,-27.095 -36.300001,27.095 10.750001,-46.08 -34.899997,-30.13 44.999997,-0.02 z" />
  <path
     id="path9524-3"
     style="fill:#ffffff;stroke-width:42.2973"
     d="m 135.77801,195.04162 15.45,44.67 45,0.02 -34.9,30.13 10.75,46.08 -36.3,-27.095 -36.300001,27.095 10.750001,-46.08 -34.899997,-30.13 44.999997,-0.02 z" />
  <path
     id="path9524-7"
     style="fill:#ffffff;stroke-width:42.2973"
     d="m 135.77801,432.00562 15.45,44.67 45,0.65 -34.9,29.5 10.75,46.08 -36.3,-27.095 -36.300001,27.095 10.750001,-46.08 -34.899997,-29.5 44.999997,-0.65 z" />
  <path
     id="path9524-6-5"
     style="fill:#ffffff;stroke-width:42.2973"
     d="m 135.77801,668.96962 15.45,44.67 45,0.02 -34.9,30.13 10.75,46.08 -36.3,-27.095 -36.300001,27.095 10.750001,-46.08 -34.899997,-30.13 44.999997,-0.02 z" />
  <path
     id="path9524-3-3"
     style="fill:#ffffff;stroke-width:42.2973"
     d="m 135.77801,550.48762 15.45,44.67 45,0.02 -34.9,30.13 10.75,46.08 -36.3,-27.095 -36.300001,27.095 10.750001,-46.08 -34.899997,-30.13 44.999997,-0.02 z" />
  <rect
     style="fill:none;stroke:#ffffff;stroke-width:25.6627;stroke-dasharray:none;stroke-opacity:1"
     id="rect307"
     width="1698.9709"
     height="851.7887"
     x="8.6328249"
     y="7.9466" />
</svg>
